<svg xmlns="http://www.w3.org/2000/svg" xmlns:xlink="http://www.w3.org/1999/xlink" width="640" zoomAndPan="magnify" viewBox="0 0 480 479.999983" height="640" preserveAspectRatio="xMidYMid meet" version="1.0"><defs><filter x="0%" y="0%" width="100%" height="100%" id="10afc301d3"><feColorMatrix values="0 0 0 0 1 0 0 0 0 1 0 0 0 0 1 0 0 0 1 0" color-interpolation-filters="sRGB"/></filter><clipPath id="a71fa1cfc5"><path d="M 233 68 L 238.003906 68 L 238.003906 233 L 233 233 Z M 233 68 " clip-rule="nonzero"/></clipPath><clipPath id="1fa0308e78"><path d="M 212 274 L 238.003906 274 L 238.003906 418 L 212 418 Z M 212 274 " clip-rule="nonzero"/></clipPath><mask id="105604cd40"><g filter="url(#10afc301d3)"><rect x="-105.6" width="691.2" fill="#000000" y="-112.599996" height="691.199976" fill-opacity="0.7"/></g></mask><clipPath id="fde899493c"><path d="M 1 0.0390625 L 26.003906 0.0390625 L 26.003906 143.800781 L 1 143.800781 Z M 1 0.0390625 " clip-rule="nonzero"/></clipPath><clipPath id="b89005d0b3"><rect x="0" width="27" y="0" height="144"/></clipPath><clipPath id="1628257161"><path d="M 149 222 L 471 222 L 471 321 L 149 321 Z M 149 222 " clip-rule="nonzero"/></clipPath><clipPath id="c6255f2b8c"><path d="M 149.59375 222.039062 L 266.269531 -19.828125 L 470.75 78.8125 L 354.074219 320.679688 Z M 149.59375 222.039062 " clip-rule="nonzero"/></clipPath><clipPath id="36ee4a3603"><path d="M -61.8125 390.507812 L 223.804688 -201.578125 L 815.890625 84.042969 L 530.273438 676.128906 Z M -61.8125 390.507812 " clip-rule="nonzero"/></clipPath><clipPath id="14b9dadce6"><path d="M 267 18 L 395 18 L 395 276 L 267 276 Z M 267 18 " clip-rule="nonzero"/></clipPath><clipPath id="35b4588fc5"><path d="M 149.59375 222.039062 L 266.269531 -19.828125 L 470.75 78.8125 L 354.074219 320.679688 Z M 149.59375 222.039062 " clip-rule="nonzero"/></clipPath><clipPath id="0e99bdb0c3"><path d="M -61.8125 390.507812 L 223.804688 -201.578125 L 815.890625 84.042969 L 530.273438 676.128906 Z M -61.8125 390.507812 " clip-rule="nonzero"/></clipPath><clipPath id="824b43a435"><path d="M 166 61 L 265 61 L 265 402 L 166 402 Z M 166 61 " clip-rule="nonzero"/></clipPath><clipPath id="bfe84505eb"><path d="M 166.953125 394.941406 L 201.738281 61.617188 L 264.675781 68.183594 L 229.894531 401.507812 Z M 166.953125 394.941406 " clip-rule="nonzero"/></clipPath><clipPath id="40a73d7e43"><path d="M 0.800781 0.398438 L 98.71875 0.398438 L 98.71875 340.71875 L 0.800781 340.71875 Z M 0.800781 0.398438 " clip-rule="nonzero"/></clipPath><clipPath id="57ff40b429"><path d="M 0.953125 333.941406 L 35.738281 0.617188 L 98.675781 7.183594 L 63.894531 340.507812 Z M 0.953125 333.941406 " clip-rule="nonzero"/></clipPath><clipPath id="adc2b0115a"><rect x="0" width="99" y="0" height="341"/></clipPath><clipPath id="3022d3ffda"><path d="M 215 351 L 369 351 L 369 473 L 215 473 Z M 215 351 " clip-rule="nonzero"/></clipPath><clipPath id="f17c264d52"><path d="M 215.816406 443.675781 L 284.757812 222.035156 L 453.007812 274.371094 L 384.070312 496.011719 Z M 215.816406 443.675781 " clip-rule="nonzero"/></clipPath><clipPath id="588a73b39b"><path d="M -202.257812 550.324219 L -7.015625 -77.386719 L 620.695312 117.859375 L 425.453125 745.570312 Z M -202.257812 550.324219 " clip-rule="nonzero"/></clipPath><clipPath id="b3accff86d"><path d="M 217 248 L 416 248 L 416 473 L 217 473 Z M 217 248 " clip-rule="nonzero"/></clipPath><clipPath id="7c41e62f31"><path d="M 215.816406 443.675781 L 284.757812 222.035156 L 453.007812 274.371094 L 384.070312 496.011719 Z M 215.816406 443.675781 " clip-rule="nonzero"/></clipPath><clipPath id="d9e3d4dfbf"><path d="M -202.257812 550.324219 L -7.015625 -77.386719 L 620.695312 117.859375 L 425.453125 745.570312 Z M -202.257812 550.324219 " clip-rule="nonzero"/></clipPath><mask id="526d817350"><g filter="url(#10afc301d3)"><rect x="-105.6" width="691.2" fill="#000000" y="-112.599996" height="691.199976" fill-opacity="0.7"/></g></mask><clipPath id="1a2f532812"><path d="M 0.679688 18 L 169 18 L 169 197 L 0.679688 197 Z M 0.679688 18 " clip-rule="nonzero"/></clipPath><clipPath id="7dc0136f0b"><path d="M -1.183594 195.675781 L 67.757812 -25.964844 L 236.007812 26.371094 L 167.070312 248.011719 Z M -1.183594 195.675781 " clip-rule="nonzero"/></clipPath><clipPath id="603613cc22"><path d="M -419.257812 302.324219 L -224.015625 -325.386719 L 403.695312 -130.140625 L 208.453125 497.570312 Z M -419.257812 302.324219 " clip-rule="nonzero"/></clipPath><clipPath id="c1afc8adf8"><rect x="0" width="199" y="0" height="225"/></clipPath><clipPath id="f415a773c6"><rect x="0" width="480" y="0" height="473"/></clipPath></defs><g transform="matrix(1, 0, 0, 1, 0, 7)"><g clip-path="url(#f415a773c6)"><path fill="#000000" d="M 151.496094 27.699219 L 233.613281 27.699219 L 192.554688 438.300781 L 110.433594 438.300781 Z M 151.496094 27.699219 " fill-opacity="1" fill-rule="nonzero"/><g clip-path="url(#a71fa1cfc5)"><path fill="#7c3aed" d="M 233.613281 150.878906 L 479.976562 68.757812 L 356.796875 233 Z M 233.613281 150.878906 " fill-opacity="1" fill-rule="nonzero"/></g><g clip-path="url(#1fa0308e78)"><g mask="url(#105604cd40)"><g transform="matrix(1, 0, 0, 1, 212, 274)"><g clip-path="url(#b89005d0b3)"><g clip-path="url(#fde899493c)"><path fill="#7c3aed" d="M 1.085938 0.0585938 L 206.386719 61.652344 L 103.734375 143.769531 Z M 1.085938 0.0585938 " fill-opacity="1" fill-rule="nonzero"/></g></g></g></g></g><g clip-path="url(#1628257161)"><g clip-path="url(#c6255f2b8c)"><g clip-path="url(#36ee4a3603)"><path fill="#000000" d="M 120.492188 296.101562 L 156.171875 222.136719 L 508.15625 437.519531 L 472.476562 511.480469 Z M 120.492188 296.101562 " fill-opacity="1" fill-rule="nonzero"/></g></g></g><g clip-path="url(#14b9dadce6)"><g clip-path="url(#35b4588fc5)"><g clip-path="url(#0e99bdb0c3)"><path fill="#7c3aed" d="M 267.121094 275.65625 L 300.195312 18.082031 L 394.605469 200.390625 Z M 267.121094 275.65625 " fill-opacity="1" fill-rule="nonzero"/></g></g></g><g clip-path="url(#824b43a435)"><g clip-path="url(#bfe84505eb)"><g transform="matrix(1, 0, 0, 1, 166, 61)"><g clip-path="url(#adc2b0115a)"><g clip-path="url(#40a73d7e43)"><g clip-path="url(#57ff40b429)"><path fill="#d9d9d9" d="M 0.953125 333.941406 L 35.742188 0.566406 L 98.679688 7.132812 L 63.894531 340.507812 Z M 0.953125 333.941406 " fill-opacity="1" fill-rule="nonzero"/></g></g></g></g></g></g><g clip-path="url(#3022d3ffda)"><g clip-path="url(#f17c264d52)"><g clip-path="url(#588a73b39b)"><path fill="#000000" d="M -35.855469 430.082031 L -11.464844 351.667969 L 368.414062 512.824219 L 344.023438 591.242188 Z M -35.855469 430.082031 " fill-opacity="1" fill-rule="nonzero"/></g></g></g><g clip-path="url(#b3accff86d)"><g clip-path="url(#7c41e62f31)"><g clip-path="url(#d9e3d4dfbf)"><g mask="url(#526d817350)"><g transform="matrix(1, 0, 0, 1, 217, 248)"><g clip-path="url(#c1afc8adf8)"><g clip-path="url(#1a2f532812)"><g clip-path="url(#7dc0136f0b)"><g clip-path="url(#603613cc22)"><path fill="#7c3aed" d="M 0.679688 196.441406 L 120.46875 18.695312 L 168.394531 141.105469 Z M 0.679688 196.441406 " fill-opacity="1" fill-rule="nonzero"/></g></g></g></g></g></g></g></g></g></g></g></svg>